<svg width="40" height="40" viewBox="0 0 40 40" fill="none" xmlns="http://www.w3.org/2000/svg">
<g opacity="0.7">
<g clip-path="url(#clip0)">
<path d="M21.1667 18.8333L38.6667 18.8333V2.49992C38.6667 1.85592 38.144 1.33325 37.5 1.33325L21.1667 1.33325L21.1667 18.8333Z" fill="#4CAF50"/>
<path d="M18.8333 18.8333L18.8333 1.33325L2.49999 1.33325C1.85599 1.33325 1.33333 1.85592 1.33333 2.49992L1.33333 18.8333L18.8333 18.8333Z" fill="#F44336"/>
<path d="M18.8333 21.1667L1.33333 21.1667L1.33333 37.5001C1.33333 38.1441 1.85599 38.6667 2.49999 38.6667H18.8333L18.8333 21.1667Z" fill="#2196F3"/>
<path d="M21.1667 21.1667L21.1667 38.6667H37.5C38.144 38.6667 38.6667 38.1441 38.6667 37.5001V21.1667L21.1667 21.1667Z" fill="#FFC107"/>
</g>
</g>
<defs>
<clipPath id="clip0">
<rect width="37.3333" height="37.3333" fill="white" transform="translate(1.33333 1.33325)"/>
</clipPath>
</defs>
</svg>
