<svg width="40" height="40" viewBox="0 0 40 40" fill="none" xmlns="http://www.w3.org/2000/svg">
<path d="M20 0C8.95461 0 0.00012207 8.95424 0.00012207 19.9996C0.00012207 31.0462 8.95461 40 20 40C31.0459 40 39.9999 31.0462 39.9999 19.9996C39.9999 8.95495 31.0466 0 20 0ZM29.1718 28.8452C28.8126 29.4344 28.045 29.619 27.4578 29.2601C22.7613 26.3896 16.8499 25.7412 9.88816 27.3316C9.21731 27.4854 8.5486 27.0648 8.39576 26.3942C8.24219 25.7233 8.66084 25.0546 9.33337 24.9018C16.9519 23.16 23.4868 23.9097 28.7584 27.1309C29.3459 27.4916 29.5324 28.2577 29.1718 28.8452ZM31.6198 23.4003C31.1674 24.1342 30.2078 24.3644 29.4749 23.9137C24.1001 20.6098 15.9044 19.6529 9.5457 21.5831C8.72103 21.8321 7.85004 21.3674 7.59975 20.5442C7.35137 19.7195 7.81637 18.8502 8.6396 18.5994C15.903 16.3955 24.9324 17.4631 31.1061 21.2568C31.8393 21.7082 32.0711 22.6681 31.6198 23.4003ZM31.8299 17.7296C25.3831 13.901 14.7492 13.549 8.59491 15.4168C7.60667 15.7166 6.56157 15.1587 6.26208 14.1704C5.9626 13.1817 6.52002 12.1373 7.50898 11.8368C14.5737 9.69221 26.3179 10.1066 33.7391 14.5122C34.628 15.0397 34.9196 16.1877 34.3927 17.0755C33.8673 17.9644 32.716 18.2574 31.8299 17.7296Z" fill="#2EBD59"/>
</svg>
