<svg width="34" height="40" viewBox="0 0 34 40" fill="none" xmlns="http://www.w3.org/2000/svg">
<path d="M11.4732 40C5.52002 39.9657 0.595703 27.8133 0.595703 21.6244C0.595703 11.5149 8.1796 9.3016 11.1024 9.3016C12.4196 9.3016 13.826 9.81886 15.0666 10.2766C15.934 10.5959 16.8312 10.9255 17.3302 10.9255C17.6289 10.9255 18.3327 10.6451 18.9541 10.3991C20.2793 9.87152 21.9283 9.21582 23.8486 9.21582C23.8521 9.21582 23.8567 9.21582 23.86 9.21582C25.2939 9.21582 29.6415 9.5305 32.2553 13.4558L32.8676 14.3758L31.9864 15.0408C30.7276 15.9906 28.4308 17.7232 28.4308 21.1553C28.4308 25.2202 31.032 26.7834 32.2817 27.5353C32.8333 27.8672 33.4043 28.2094 33.4043 28.9578C33.4043 29.4464 29.5042 39.9394 23.8406 39.9394C22.4548 39.9394 21.4752 39.5228 20.6111 39.1555C19.7368 38.7835 18.9826 38.4631 17.7364 38.4631C17.1047 38.4631 16.3058 38.7618 15.4601 39.0788C14.3045 39.5102 12.9963 40 11.5121 40H11.4732Z" fill="black"/>
<path d="M24.4473 0C24.5948 5.31838 20.7913 9.00802 16.9923 8.77662C16.3663 4.53237 20.7909 0 24.4473 0Z" fill="black"/>
</svg>
