<svg width="40" height="40" viewBox="0 0 40 40" fill="none" xmlns="http://www.w3.org/2000/svg">
<g opacity="0.9">
<path d="M37.5175 20.3493C37.5175 18.8198 37.3943 17.7036 37.1278 16.5461L19.7962 16.5461V23.4496H29.9694C29.7644 25.1653 28.6568 27.7489 26.1955 29.4851L26.161 29.7162L31.6409 33.9943L32.0206 34.0324C35.5074 30.7873 37.5175 26.0127 37.5175 20.3493Z" fill="#4285F4"/>
<path d="M19.7955 38.5385C24.7795 38.5385 28.9637 36.8849 32.0199 34.0325L26.1948 29.4851C24.636 30.5806 22.5438 31.3454 19.7955 31.3454C14.9139 31.3454 10.7707 28.1003 9.29378 23.615L9.0773 23.6335L3.37914 28.0775L3.30463 28.2863C6.34021 34.3631 12.5755 38.5385 19.7955 38.5385Z" fill="#34A853"/>
<path d="M9.29258 23.6151C8.90288 22.4576 8.67735 21.2174 8.67735 19.9359C8.67735 18.6543 8.90288 17.4142 9.27208 16.2567L9.26176 16.0102L3.49223 11.4949L3.30346 11.5854C2.05236 14.1071 1.33447 16.9388 1.33447 19.9359C1.33447 22.933 2.05236 25.7646 3.30346 28.2863L9.29258 23.6151Z" fill="#FBBC05"/>
<path d="M19.7953 8.52643C23.2616 8.52643 25.5998 10.0353 26.9331 11.2962L32.1428 6.17016C28.9432 3.17309 24.7794 1.3335 19.7953 1.3335C12.5755 1.3335 6.34019 5.5087 3.30463 11.5855L9.27324 16.2569C10.7707 11.7716 14.9138 8.52643 19.7953 8.52643Z" fill="#EB4335"/>
</g>
</svg>
